:SAMPLES-PER-SECOND 30
:FULLY-SPECIFIED
:DEGREES
143
root  3.94672 38.8725 -5.28888 -28.183 83.1383 -24.3481
RightUpLeg  -14.7248 -18.6612 3.6668
RightLeg  30.3523 -1.95796 -1.51105
RightFoot  -9.36955 0.0490798 -6.51117
RightToes  0.00048216 0.542163 -0.142577
Spine  13.7764 -2.22805 12.9591
Spine1  11.3977 0.00791763 -0.611886
HEad  -2.1251 2.49833 -3.36541
LeftShoulder1  9.53316 -14.325 -46.6521
LeftArm  -12.31 11.6472 -22.2432
LeftForeArm  25.5627 -71.1425 -32.7511
LeftHand  -0.25398 0.0180481 5.50724
RightShoulder  4.99378 9.17092 33.456
RightArm  -6.99046 -20.2889 24.8534
RightForeArm  3.32337 76.129 61.6495
RightHand  0.543021 -9.834 -15.2602
LeftUpLeg  -18.231 3.69238 5.43573
LeftLeg  64.9375 0.631376 2.12707
LeftFoot  6.9822 0.853997 -5.53012
LeftToes  1.06244e-005 4.65855e-005 -8.18506e-006
144
root  5.55721 39.2464 -4.84109 -23.2542 83.5679 -19.4733
RightUpLeg  -10.3843 -19.5324 2.34418
RightLeg  27.7001 -1.28316 -0.938866
RightFoot  -10.8937 -0.0497057 -6.06463
RightToes  0.00048216 0.542163 -0.142577
Spine  13.0183 -1.53292 11.8805
Spine1  11.1162 0.436459 -0.877456
HEad  -0.699287 1.73943 -3.00925
LeftShoulder1  9.49727 -14.2715 -46.6153
LeftArm  -12.8228 12.2251 -22.3661
LeftForeArm  24.7769 -70.7114 -31.8658
LeftHand  -0.25398 0.0180481 5.50724
RightShoulder  4.98716 9.17133 33.4026
RightArm  -6.88493 -20.1639 25.4446
RightForeArm  1.94709 75.8778 59.6573
RightHand  0.536867 -9.88179 -14.9617
LeftUpLeg  -21.3827 4.73134 3.64681
LeftLeg  58.9519 1.5463 3.27351
LeftFoot  4.92965 0.472466 -3.50811
LeftToes  1.06244e-005 4.65855e-005 -8.18506e-006
145
root  7.14335 39.5377 -4.43405 -19.345 83.9451 -15.7502
RightUpLeg  -6.15231 -19.4672 0.955194
RightLeg  24.8879 -1.43973 -0.283067
RightFoot  -11.6755 -0.0949051 -5.41062
RightToes  0.00048216 0.542163 -0.142577
Spine  12.0274 -0.897404 11.0989
Spine1  11.0417 0.8727 -1.38768
HEad  0.325341 1.09991 -2.76673
LeftShoulder1  9.44049 -14.2336 -46.431
LeftArm  -13.2003 12.8301 -22.4998
LeftForeArm  24.5399 -70.5353 -31.5025
LeftHand  -0.25398 0.0180481 5.50724
RightShoulder  4.91792 9.02321 33.3158
RightArm  -6.80657 -20.1802 26.157
RightForeArm  1.33752 75.6985 58.2875
RightHand  0.527358 -9.92973 -14.5867
LeftUpLeg  -23.1346 6.71197 1.93454
LeftLeg  49.7084 3.02312 4.24673
LeftFoot  2.43005 0.35699 -3.12015
LeftToes  1.06244e-005 4.65855e-005 -8.18506e-006
146
root  8.72622 39.6992 -4.0856 -19.2534 84.1768 -15.9155
RightUpLeg  -2.11859 -17.7173 -0.109877
RightLeg  22.3644 -3.53183 0.54939
RightFoot  -12.7256 -0.150188 -5.26539
RightToes  0.00048216 0.542163 -0.142577
Spine  10.9727 -0.355004 10.9748
Spine1  11.1603 1.29291 -1.8513
HEad  0.829698 0.604355 -2.5776
LeftShoulder1  9.3945 -14.1909 -46.3131
LeftArm  -13.4628 13.3728 -22.5505
LeftForeArm  24.7701 -70.5932 -31.5931
LeftHand  -0.25398 0.0180481 5.50724
RightShoulder  4.87456 8.91621 33.305
RightArm  -6.74526 -20.3066 26.5496
RightForeArm  1.55859 75.6589 57.928
RightHand  0.524672 -10.0027 -14.3112
LeftUpLeg  -23.3798 10.0176 0.334873
LeftLeg  37.1392 3.60538 3.39966
LeftFoot  1.23171 0.502374 -4.60759
LeftToes  1.06244e-005 4.65855e-005 -8.18506e-006
147
root  10.3177 39.7725 -3.7726 -19.5207 84.2975 -16.3234
RightUpLeg  2.19561 -15.0278 -0.885085
RightLeg  19.3035 -6.27113 1.58439
RightFoot  -14.0959 -0.212185 -4.9032
RightToes  0.00048216 0.542163 -0.142577
Spine  10.033 0.127443 10.7525
Spine1  11.5675 1.70362 -2.32015
HEad  0.962207 0.303539 -2.29702
LeftShoulder1  9.34076 -14.1445 -46.1647
LeftArm  -13.5978 13.9531 -22.607
LeftForeArm  25.431 -70.9157 -32.2285
LeftHand  -0.25398 0.0180481 5.50724
RightShoulder  4.91401 8.98367 33.4081
RightArm  -6.57305 -20.5287 26.4359
RightForeArm  2.52962 75.7598 58.5407
RightHand  0.516798 -9.99528 -14.1428
LeftUpLeg  -22.2898 14.5087 -1.76561
LeftLeg  22.3708 2.26658 1.32004
LeftFoot  1.98175 0.568252 -4.97298
LeftToes  1.06244e-005 4.65855e-005 -8.18506e-006
148
root  11.9315 39.7141 -3.48903 -17.6173 84.3502 -14.3469
RightUpLeg  6.51127 -13.0506 -1.67159
RightLeg  16.5026 -7.6029 2.48908
RightFoot  -15.4032 -0.223959 -3.39392
RightToes  0.00048216 0.542163 -0.142577
Spine  9.23612 0.494566 10.1547
Spine1  12.3041 2.14315 -2.89379
HEad  1.20498 0.194521 -1.7993
LeftShoulder1  9.25754 -14.116 -45.8165
LeftArm  -13.6394 14.5781 -22.7881
LeftForeArm  26.1963 -71.3122 -33.0597
LeftHand  -0.25398 0.0180481 5.50724
RightShoulder  4.98465 9.11705 33.5513
RightArm  -6.24214 -20.7088 26.2297
RightForeArm  2.94904 75.8083 58.8532
RightHand  0.476858 -9.61661 -14.2769
LeftUpLeg  -19.9263 14.0396 -1.97352
LeftLeg  8.00753 5.53731 -1.96757
LeftFoot  2.25254 0.541166 -4.65483
LeftToes  1.06244e-005 4.65855e-005 -8.18506e-006
